<?xml version="1.0" encoding="UTF-8"?><svg id="Ebene_1" xmlns="http://www.w3.org/2000/svg" xmlns:xlink="http://www.w3.org/1999/xlink" viewBox="0 0 2118.03 1534.91"><defs><style>.cls-1{clip-path:url(#clippath-4);}.cls-1,.cls-2,.cls-3,.cls-4,.cls-5,.cls-6,.cls-7,.cls-8,.cls-9,.cls-10,.cls-11,.cls-12{fill:none;}.cls-2{clip-path:url(#clippath-2);}.cls-13{fill:#fff;}.cls-3{clip-path:url(#clippath-6);}.cls-4{clip-path:url(#clippath-9);}.cls-5{clip-path:url(#clippath-7);}.cls-6{clip-path:url(#clippath-5);}.cls-7{clip-path:url(#clippath-3);}.cls-14{fill:#930d00;}.cls-9{clip-path:url(#clippath);}.cls-10{clip-path:url(#clippath-1);}.cls-11{clip-path:url(#clippath-8);}.cls-12{stroke:#930d00;stroke-miterlimit:4;stroke-width:34.97px;}</style><clipPath id="clippath"><rect class="cls-8" x="1377.38" y="282.69" width="446.43" height="558.37"/></clipPath><clipPath id="clippath-1"><rect class="cls-8" x="1458.46" y="319.28" width="284.46" height="486.1" transform="translate(-94.08 640.98) rotate(-22.01)"/></clipPath><clipPath id="clippath-2"><rect class="cls-8" x="1458.39" y="319.45" width="283.65" height="485.57" transform="translate(-94.07 640.82) rotate(-22.01)"/></clipPath><clipPath id="clippath-3"><rect class="cls-8" x="1388.04" y="73.46" width="377.13" height="534.38"/></clipPath><clipPath id="clippath-4"><rect class="cls-8" x="1434.8" y="97.89" width="284.46" height="486.1" transform="translate(-36.37 327.18) rotate(-11.71)"/></clipPath><clipPath id="clippath-5"><rect class="cls-8" x="1434.76" y="97.97" width="283.65" height="485.57" transform="translate(-36.35 327.1) rotate(-11.71)"/></clipPath><clipPath id="clippath-6"><rect class="cls-8" x="127.03" y="33.27" width="103.02" height="157.74"/></clipPath><clipPath id="clippath-7"><path class="cls-8" d="m130.22,33.27h96.65c1.76,0,3.19,1.43,3.19,3.19v151.2c0,1.76-1.43,3.19-3.19,3.19h-96.65c-1.76,0-3.19-1.43-3.19-3.19V36.45c0-1.76,1.43-3.19,3.19-3.19"/></clipPath><clipPath id="clippath-8"><rect class="cls-8" x="33.41" y="179.91" width="443.9" height="727.54"/></clipPath><clipPath id="clippath-9"><rect class="cls-8" x="129.99" y="21.94" width="90.43" height="184.69"/></clipPath></defs><path class="cls-14" d="m92.71,1466.51h-41.96l-21.76,54.35c-1.5,3.9-2.25,6.31-2.25,7.23,0,2.14,1.59,3.21,4.79,3.21v1.37H10.17v-1.37c2.86,0,5.26-.69,7.2-2.08,1.96-1.4,4.11-5.03,6.45-10.89l52.1-131.53h2.44l51.33,127.06c0,.64,1.32,3.71,3.96,9.2,2.63,5.5,6.65,8.25,12.06,8.25v1.37h-33.57v-1.37c3.05,0,4.58-1.2,4.58-3.6,0-1.62-.75-4.23-2.25-7.81-.27-.26-.49-.69-.69-1.27-.12-.65-.22-.98-.29-.98l-20.78-51.12Zm-40.58-4h38.83l-19.43-48.99-19.41,48.99Z"/><path class="cls-14" d="m248.21,1390.4v-1.48h65.94c16.78,0,30.03,1.32,39.75,3.96,9.73,2.64,18.2,6.79,25.42,12.45,7.23,5.65,12.96,12.88,17.18,21.7,4.23,8.82,6.35,18.66,6.35,29.53s-2.2,20.76-6.6,30.88c-4.39,10.12-10.36,18.84-17.91,26.15-7.54,7.32-15.49,12.33-23.84,15.03-8.36,2.7-21.29,4.04-38.79,4.04h-67.51v-1.37h1.75c3.51,0,5.81-1.41,6.91-4.23,1.11-2.83,1.67-7.95,1.67-15.37v-104.72c0-7.8-.67-12.51-2-14.14s-4.11-2.44-8.33-2.44Zm48.97,1.56h-22.05v111.52c0,7.03,1.19,12.24,3.56,15.66s6.42,5.89,12.14,7.41c5.73,1.53,13.44,2.29,23.13,2.29,26.93,0,45.84-6.9,56.74-20.72,10.9-13.83,16.35-28.91,16.35-45.25,0-19.18-7.47-35.8-22.4-49.85-14.92-14.04-37.41-21.07-67.46-21.07Z"/><path class="cls-14" d="m573.35,1534.91h-1.85l-51.12-126.56c-3.65-8.91-6.65-14.13-9-15.66-2.33-1.53-4.74-2.29-7.2-2.29v-1.48h33.17v1.48c-2.93-.19-4.39.95-4.39,3.41,0,.97.19,2.01.58,3.12l44.6,110.73,44.29-110.65c.59-1.48.9-2.69.9-3.6,0-2.21-1.73-3.21-5.18-3.02v-1.48h21.57v1.48c-1.5,0-3.08.22-4.75.65-1.66.42-3.36,2.09-5.12,5.02-1.75,2.92-2.66,4.47-2.73,4.66l-53.76,134.18Z"/><path class="cls-14" d="m821.74,1386.78c20.16,0,36.64,6.14,49.45,18.41,12.83,12.26,19.24,27.56,19.24,45.89,0,23.63-7.42,43.51-22.26,59.64-14.83,16.13-34.5,24.2-59.03,24.2-19.91,0-36.2-6.5-48.89-19.51-12.68-13.02-19.01-28.64-19.01-46.85,0-12.29,3.05-24.89,9.16-37.83,6.12-12.95,15.33-23.51,27.61-31.67,12.3-8.17,26.87-12.26,43.73-12.26Zm-.58,140.51c9.88,0,19.64-2.65,29.26-7.95,9.63-5.3,17.21-12.6,22.74-21.91,5.52-9.3,8.29-18.85,8.29-28.67,0-13.92-3.73-26.57-11.18-37.96-7.44-11.38-17.1-20.29-28.96-26.74-11.87-6.44-22.84-9.66-32.92-9.66-14.26,0-27.19,5.37-38.81,16.1-11.61,10.73-17.41,24.07-17.41,40,0,20.36,7.09,38.26,21.28,53.68,14.19,15.41,30.09,23.11,47.72,23.11Z"/><path class="cls-14" d="m1139.47,1531.29v1.37h-57.95c-11.13,0-20.88-1.2-29.23-3.6-8.36-2.42-16.88-6.99-25.57-13.72-8.68-6.73-15.7-15.1-21.07-25.11-5.36-10.02-8.04-20.27-8.04-30.75,0-11.44,3.36-22.85,10.1-34.23,6.73-11.38,16.31-20.63,28.73-27.76,12.42-7.13,26.51-10.7,42.25-10.7,14.12,0,29.05,3.12,44.79,9.37l5.93,16.6h-1.35c-5.01-6.37-11.86-11.65-20.55-15.85-8.68-4.21-18.35-6.31-29.03-6.31-18.53,0-33.72,6.98-45.56,20.93-11.84,13.95-17.76,31.28-17.76,51.97,0,8.58.97,16.24,2.92,22.97,1.96,6.74,5.61,13.37,10.97,19.91,5.37,6.54,11.13,11.36,17.28,14.45,6.15,3.08,13.02,5.23,20.63,6.43,7.62,1.21,13.67,1.74,18.16,1.6l7.7-.19c8.71-.33,14.16-1.15,16.35-2.44,2.18-1.3,3.27-4.62,3.27-9.95v-21.76c0-4.23-.88-7.08-2.64-8.54-1.75-1.47-4.25-2.11-7.5-1.92v-1.35h37.17v1.35c-4.16,0-6.95.82-8.35,2.46-1.39,1.62-2.08,4.74-2.08,9.35v22.65c0,4.55.59,7.82,1.79,9.81,1.21,1.97,3.4,2.96,6.6,2.96h2.04Z"/><path class="cls-14" d="m1320.22,1466.51h-41.96l-21.76,54.35c-1.5,3.9-2.25,6.31-2.25,7.23,0,2.14,1.59,3.21,4.79,3.21v1.37h-21.36v-1.37c2.86,0,5.26-.69,7.2-2.08,1.96-1.4,4.11-5.03,6.45-10.89l52.1-131.53h2.44l51.33,127.06c0,.64,1.32,3.71,3.96,9.2,2.63,5.5,6.65,8.25,12.06,8.25v1.37h-33.57v-1.37c3.05,0,4.58-1.2,4.58-3.6,0-1.62-.75-4.23-2.25-7.81-.27-.26-.49-.69-.69-1.27-.12-.65-.22-.98-.29-.98l-20.78-51.12Zm-40.58-4h38.83l-19.43-48.99-19.41,48.99Z"/><path class="cls-14" d="m1475.72,1390.4v-1.48h65.94c16.78,0,30.03,1.32,39.75,3.96,9.73,2.64,18.2,6.79,25.42,12.45,7.23,5.65,12.96,12.88,17.18,21.7,4.23,8.82,6.35,18.66,6.35,29.53s-2.2,20.76-6.6,30.88c-4.39,10.12-10.36,18.84-17.91,26.15-7.54,7.32-15.49,12.33-23.84,15.03-8.36,2.7-21.29,4.04-38.79,4.04h-67.51v-1.37h1.75c3.51,0,5.81-1.41,6.91-4.23,1.11-2.83,1.67-7.95,1.67-15.37v-104.72c0-7.8-.67-12.51-2-14.14s-4.11-2.44-8.33-2.44Zm48.97,1.56h-22.05v111.52c0,7.03,1.19,12.24,3.56,15.66s6.42,5.89,12.14,7.41c5.73,1.53,13.44,2.29,23.13,2.29,26.93,0,45.84-6.9,56.74-20.72,10.9-13.83,16.35-28.91,16.35-45.25,0-19.18-7.47-35.8-22.4-49.85-14.92-14.04-37.41-21.07-67.46-21.07Z"/><path class="cls-14" d="m1817.86,1386.78c20.16,0,36.64,6.14,49.45,18.41,12.83,12.26,19.24,27.56,19.24,45.89,0,23.63-7.42,43.51-22.26,59.64-14.83,16.13-34.5,24.2-59.03,24.2-19.91,0-36.2-6.5-48.89-19.51-12.68-13.02-19.01-28.64-19.01-46.85,0-12.29,3.05-24.89,9.16-37.83,6.12-12.95,15.33-23.51,27.61-31.67,12.3-8.17,26.87-12.26,43.73-12.26Zm-.58,140.51c9.88,0,19.64-2.65,29.26-7.95,9.63-5.3,17.21-12.6,22.74-21.91,5.52-9.3,8.29-18.85,8.29-28.67,0-13.92-3.73-26.57-11.18-37.96-7.44-11.38-17.1-20.29-28.96-26.74-11.87-6.44-22.84-9.66-32.92-9.66-14.26,0-27.19,5.37-38.81,16.1-11.61,10.73-17.41,24.07-17.41,40,0,20.36,7.09,38.26,21.28,53.68,14.19,15.41,30.09,23.11,47.72,23.11Z"/><path class="cls-14" d="m2063.77,1390.8l6.83,17.95-1.17.19c0-.07-1.81-1.98-5.41-5.75-3.61-3.77-7.74-6.68-12.39-8.72-4.65-2.05-9.91-3.08-15.76-3.08-9.83,0-17.63,2.81-23.38,8.43-5.75,5.62-8.62,12.4-8.62,20.34,0,5.28,1.34,9.89,4.04,13.83,2.71,3.93,8.35,7.58,16.93,10.95,14.77,4.95,24.87,8.67,30.3,11.18,5.44,2.5,10.68,6.74,15.72,12.72,5.04,5.99,7.56,13.66,7.56,23.03,0,3.9-.46,7.63-1.37,11.18-.91,3.54-2.37,6.95-4.39,10.24-2.01,3.28-4.44,6.27-7.27,8.97-2.82,2.7-5.69,4.74-8.62,6.14-2.93,1.41-7.55,2.47-13.87,3.19-6.3.71-10.46,1.06-12.47,1.06h-38.35v-41.77h1.46c.14,13.87,3.39,23.54,9.77,29.01,6.37,5.46,16.29,8.18,29.76,8.18,12.23,0,21.51-2.89,27.86-8.68,6.34-5.79,9.52-12.75,9.52-20.88,0-4.94-1.11-9.15-3.33-12.64-2.21-3.48-5.3-6.54-9.27-9.16-3.96-2.63-11.47-5.84-22.53-9.62-10.99-3.83-18.72-7.19-23.18-10.1-4.46-2.9-8.18-7.26-11.18-13.08-2.99-5.81-4.48-11.75-4.48-17.8,0-11.12,3.82-20.45,11.45-28.01,7.65-7.55,17.68-11.33,30.11-11.33,4.82,0,10.02.56,15.62,1.67,5.59,1.11,8.71,1.83,9.37,2.14.25.14.5.21.77.21Z"/><path class="cls-12" d="m.9,1323.57h2117.13"/><path class="cls-14" d="m0,1039.25v-2.25h100.7c25.62,0,45.86,2.01,60.7,6.04,14.85,4.03,27.79,10.36,38.81,19.01,11.02,8.64,19.76,19.68,26.22,33.13s9.68,28.47,9.68,45.06-3.35,31.71-10.06,47.16c-6.7,15.44-15.82,28.75-27.34,39.92-11.53,11.16-23.66,18.8-36.42,22.93-12.76,4.12-32.5,6.18-59.22,6.18H0v-2.08h2.69c5.36,0,8.88-2.16,10.56-6.48,1.69-4.33,2.54-12.15,2.54-23.47v-159.83c0-11.92-1.02-19.12-3.06-21.59-2.03-2.48-6.27-3.73-12.72-3.73Zm74.77,2.37h-33.67v170.26c0,10.73,1.81,18.71,5.43,23.92,3.63,5.21,9.82,8.97,18.55,11.31,8.75,2.33,20.52,3.5,35.31,3.5,41.1,0,69.97-10.55,86.6-31.65,16.64-21.1,24.97-44.11,24.97-69.05,0-29.29-11.4-54.66-34.19-76.11-22.8-21.46-57.13-32.19-103.01-32.19Z"/><path class="cls-14" d="m273.09,1039.55v-2.54h137.95v30.25h-2.25c-2.97-11.23-5.48-17.83-7.52-19.82-2.03-1.98-7.02-2.98-14.97-2.98h-72.4v98.47h67.19c6.65,0,10.87-.61,12.66-1.85,1.79-1.25,2.73-3.07,2.83-5.46h2.23v20.72h-2.23c-.5-2.88-1.68-4.82-3.52-5.81-1.83-1-5.23-1.5-10.18-1.5h-68.98v67.78c0,10.23.94,17.61,2.83,22.13,1.88,4.51,4.89,7.34,9.02,8.47,4.12,1.14,10.35,1.71,18.7,1.71h38.73c12.31,0,20.18-.42,23.61-1.25,3.43-.84,6.33-2.53,8.7-5.06,2.38-2.54,4.23-8.08,5.52-16.62h2.08v30.23h-150v-2.08c5.07-.3,8.91-1.28,11.54-2.92,2.63-1.63,3.96-5.88,3.96-12.72v-177.26c0-8.05-.7-13.71-2.08-16.99-1.39-3.27-5.86-4.91-13.41-4.91Z"/><path class="cls-14" d="m445.5,1256.43v-2.08c6.84,0,11.29-1.29,13.33-3.87s3.06-7,3.06-13.26v-179.63c0-6.36-.8-10.95-2.39-13.78-1.58-2.83-6.35-4.34-14.28-4.54v-2.25h58.82v2.25c-5.46,0-9.28.7-11.47,2.08-2.18,1.39-3.62,3.03-4.31,4.91-.7,1.89-1.04,6.16-1.04,12.81v154.02c0,13.22,3.18,22.53,9.54,27.94,6.36,5.4,17.23,8.1,32.61,8.1h26.82c12.91,0,22.37-3.17,28.38-9.52,6.01-6.36,9.36-18.32,10.06-35.9h2.08v52.72h-151.19Z"/><path class="cls-14" d="m633.38,1039.25v-2.25h138.84v25.78h-2.25v-1.04c-.2-.19-.29-.49-.29-.9-1.99-7.55-4.77-12.17-8.35-13.85-3.57-1.69-9.03-2.54-16.37-2.54h-70.75v96.68h65.99c5.65,0,9.52-.44,11.6-1.33,2.09-.9,3.29-2.89,3.58-5.98h2.1v21.01h-2.1c0-5.07-3.28-7.6-9.83-7.6h-71.34v87.6c0,8.24,1.26,13.54,3.79,15.93,2.52,2.39,6.87,3.58,13.03,3.58v2.08h-57.66v-2.08c6.76,0,11.03-1.29,12.81-3.87,1.79-2.58,2.69-6.21,2.69-10.87v-180.55c0-7.34-1.04-12.48-3.12-15.41-2.08-2.93-6.21-4.39-12.37-4.39Z"/><path class="cls-14" d="m859.11,1037.01v2.25c-2.87-.3-6.07.14-9.6,1.33-3.53,1.2-5.62,2.94-6.27,5.23-.64,2.28-.96,7.68-.96,16.22v168.47c0,9.14.36,14.72,1.1,16.76.75,2.04,2.19,3.74,4.33,5.08,2.13,1.33,5.93,2,11.39,2v2.08h-58.53v-2.08c7.34,0,11.91-1.42,13.7-4.25s2.69-9.26,2.69-19.28v-166.85c0-10.42-.99-17.25-2.98-20.47-1.99-3.23-6.45-4.65-13.41-4.25v-2.25h58.53Z"/><path class="cls-14" d="m1097.2,1037.01h34.57v2.25c-11.62.6-17.43,6.7-17.43,18.32,0,2.49.3,5.91.9,10.27l22.95,166.25c1.38,8.34,2.95,13.68,4.69,16.01,1.73,2.33,5.34,3.75,10.81,4.25v2.08h-49.31v-2.08c6.45.2,9.68-2.98,9.68-9.54,0-1.48-.3-4.41-.9-8.79l-22.34-161.16-78.65,181.57h-1.5l-79.1-181.28-22.18,162.06c-.41,2.49-.6,5.32-.6,8.5,0,5.76,3.32,8.64,9.97,8.64v2.08h-33.5v-2.08c5.05,0,8.3-.65,9.74-1.94,1.44-1.29,2.56-3.3,3.35-6.04.79-2.73,1.38-5.79,1.79-9.16l25.03-177.26c-4.07-9.83-8.14-15.73-12.22-17.72-4.07-1.98-7.99-2.98-11.76-2.98v-2.25h41.42l77.17,179.51,77.44-179.51Z"/><path class="cls-14" d="m1486.39,1037.01h34.57v2.25c-11.62.6-17.43,6.7-17.43,18.32,0,2.49.3,5.91.9,10.27l22.95,166.25c1.38,8.34,2.95,13.68,4.69,16.01,1.73,2.33,5.34,3.75,10.81,4.25v2.08h-49.31v-2.08c6.45.2,9.68-2.98,9.68-9.54,0-1.48-.3-4.41-.9-8.79l-22.34-161.16-78.65,181.57h-1.5l-79.1-181.28-22.18,162.06c-.41,2.49-.6,5.32-.6,8.5,0,5.76,3.32,8.64,9.97,8.64v2.08h-33.5v-2.08c5.05,0,8.3-.65,9.74-1.94,1.44-1.29,2.56-3.3,3.35-6.04.79-2.73,1.38-5.79,1.79-9.16l25.03-177.26c-4.07-9.83-8.14-15.73-12.22-17.72-4.07-1.98-7.99-2.98-11.76-2.98v-2.25h41.42l77.17,179.51,77.44-179.51Z"/><path class="cls-14" d="m1686.51,1155.44h-64.05l-33.23,82.96c-2.28,5.97-3.41,9.65-3.41,11.04,0,3.28,2.43,4.91,7.29,4.91v2.08h-32.61v-2.08c4.36,0,8.03-1.07,11.02-3.21,2.98-2.13,6.26-7.67,9.83-16.62l79.54-200.79h3.73l78.35,193.94c0,1,2,5.7,6.02,14.1,4.02,8.39,10.16,12.58,18.41,12.58v2.08h-51.24v-2.08c4.66,0,7-1.84,7-5.52,0-2.48-1.14-6.45-3.41-11.91-.41-.4-.75-1.05-1.04-1.94-.2-1-.35-1.5-.46-1.5l-31.71-78.04Zm-61.97-6.12h59.28l-29.65-74.77-29.63,74.77Z"/><path class="cls-14" d="m1853.09,1037.01v2.25c-2.87-.3-6.07.14-9.6,1.33-3.53,1.2-5.62,2.94-6.27,5.23-.64,2.28-.96,7.68-.96,16.22v168.47c0,9.14.36,14.72,1.1,16.76.75,2.04,2.19,3.74,4.33,5.08,2.13,1.33,5.93,2,11.39,2v2.08h-58.53v-2.08c7.34,0,11.91-1.42,13.7-4.25s2.69-9.26,2.69-19.28v-166.85c0-10.42-.99-17.25-2.98-20.47-1.99-3.23-6.45-4.65-13.41-4.25v-2.25h58.53Z"/><path class="cls-14" d="m2006.14,1155.44h-64.05l-33.23,82.96c-2.28,5.97-3.41,9.65-3.41,11.04,0,3.28,2.43,4.91,7.29,4.91v2.08h-32.61v-2.08c4.36,0,8.03-1.07,11.02-3.21,2.98-2.13,6.26-7.67,9.83-16.62l79.54-200.79h3.73l78.35,193.94c0,1,2,5.7,6.02,14.1,4.02,8.39,10.16,12.58,18.41,12.58v2.08h-51.24v-2.08c4.66,0,7-1.84,7-5.52,0-2.48-1.14-6.45-3.41-11.91-.41-.4-.75-1.05-1.04-1.94-.2-1-.35-1.5-.46-1.5l-31.71-78.04Zm-61.97-6.12h59.28l-29.65-74.77-29.63,74.77Z"/><path class="cls-14" d="m1821.73,0h136.93v8.87c-46.05,2.36-69.07,26.56-69.07,72.59,0,9.84,1.18,23.42,3.54,40.73l90.91,658.67c5.5,33.06,11.69,54.2,18.57,63.45,6.88,9.25,21.15,14.86,42.79,16.82v8.27h-195.35v-8.27c25.58.79,38.38-11.8,38.38-37.77,0-5.9-1.18-17.5-3.54-34.81l-88.54-638.62-311.63,719.47h-5.91l-313.4-718.29-87.95,642.14c-1.57,9.84-2.35,21.06-2.35,33.65,0,22.82,13.18,34.23,39.54,34.23v8.27h-132.8v-8.27c20.07,0,32.96-2.55,38.67-7.66,5.71-5.12,10.13-13.09,13.28-23.9,3.15-10.83,5.51-22.93,7.08-36.31l99.16-702.34c-16.13-38.96-32.27-62.37-48.41-70.23-16.13-7.87-31.67-11.81-46.62-11.81V0h164.08l305.73,711.21L1821.73,0Z"/><g class="cls-9"><g class="cls-10"><g class="cls-2"><path class="cls-13" d="m1377.72,390.31l262.95-106.31,181.9,449.88-262.95,106.32-181.9-449.88Z"/></g></g></g><g class="cls-7"><g class="cls-1"><g class="cls-6"><path class="cls-13" d="m1388.43,131.81l277.72-57.57,98.49,475.16-277.72,57.57-98.49-475.16Z"/></g></g></g><g class="cls-3"><g class="cls-5"><path class="cls-13" d="m127.03,33.27h103.02v157.74h-103.02V33.27Z"/></g></g><path class="cls-14" d="m39.74,12.29V3.38h402.04c102.31,0,183.1,8.03,242.37,24.09,59.27,16.05,110.91,41.32,154.92,75.81,44.02,34.5,78.91,78.61,104.67,132.35,25.78,53.72,38.67,113.69,38.67,179.9s-13.38,126.59-40.15,188.25c-26.77,61.65-63.14,114.77-109.13,159.37-45.99,44.6-94.47,75.14-145.42,91.6-50.95,16.45-129.74,24.67-236.4,24.67H39.74v-8.33h10.7c21.41,0,35.48-8.62,42.23-25.86,6.75-17.25,10.12-48.48,10.12-93.68V113.4c0-47.58-4.07-76.33-12.2-86.25-8.12-9.91-25.07-14.87-50.85-14.87Zm298.57,9.52h-134.43v679.81c0,42.81,7.23,74.63,21.7,95.45,14.48,20.82,39.16,35.89,74.04,45.21,34.9,9.32,81.88,13.97,140.97,13.97,164.15,0,279.43-42.12,345.84-126.37,66.42-84.26,99.63-176.16,99.63-275.69,0-116.96-45.5-218.26-136.49-303.9C658.58,64.63,521.49,21.81,338.31,21.81Z"/><g class="cls-11"><path class="cls-13" d="m33.41,179.91h444.25v727.82H33.41V179.91Z"/></g><g class="cls-4"><path class="cls-13" d="m129.99,21.94h90.23v184.35h-90.23V21.94Z"/></g></svg>